<?xml version="1.0" standalone="no"?>
<!DOCTYPE svg PUBLIC "-//W3C//DTD SVG 20010904//EN"
 "http://www.w3.org/TR/2001/REC-SVG-20010904/DTD/svg10.dtd">
<svg version="1.0" xmlns="http://www.w3.org/2000/svg"
 width="2500.000000pt" height="2500.000000pt" viewBox="0 0 2500.000000 2500.000000"
 preserveAspectRatio="xMidYMid meet">
<metadata>
Created by potrace 1.11, written by Peter Selinger 2001-2013
</metadata>
<g transform="translate(0.000000,2500.000000) scale(0.100000,-0.100000)"
fill="#000000" stroke="none">
<path d="M7329 24166 c-2 -2 -42 -6 -89 -10 -47 -4 -96 -8 -110 -10 -14 -3
-45 -7 -70 -10 -48 -6 -52 -7 -175 -32 -84 -17 -103 -22 -275 -74 -175 -54
-370 -137 -560 -240 -79 -43 -336 -213 -382 -252 -14 -13 -37 -31 -50 -42
-155 -125 -345 -314 -463 -461 -44 -55 -96 -115 -115 -134 -60 -60 -214 -118
-357 -136 -21 -2 -54 -7 -73 -10 -19 -2 -55 -7 -80 -10 -91 -11 -126 -16 -185
-25 -83 -14 -88 -15 -193 -45 -622 -179 -1176 -549 -1555 -1038 -58 -74 -197
-273 -197 -281 0 -2 -23 -43 -51 -92 -158 -272 -293 -661 -339 -974 -6 -41
-13 -86 -15 -100 -11 -62 -19 -217 -19 -355 0 -142 11 -351 18 -364 2 -3 7
-28 10 -56 10 -86 37 -221 67 -335 107 -405 304 -786 586 -1137 118 -146 437
-476 1023 -1056 847 -839 3456 -3458 4323 -4340 120 -122 342 -347 493 -500
151 -152 313 -323 360 -380 262 -314 448 -676 543 -1056 16 -64 32 -129 34
-146 3 -16 10 -59 16 -95 18 -114 24 -191 25 -347 2 -140 -2 -217 -19 -363 -7
-62 -49 -269 -64 -315 -5 -16 -24 -77 -41 -135 -18 -58 -35 -109 -39 -115 -4
-5 -16 -32 -26 -60 -33 -91 -103 -220 -137 -252 -70 -66 -143 -63 -358 14
-328 118 -657 326 -929 588 -101 97 -606 602 -3251 3251 -932 933 -1732 1730
-1778 1770 -234 206 -548 352 -837 390 -27 3 -59 8 -70 10 -24 5 -278 5 -320
0 -104 -13 -128 -17 -134 -20 -4 -3 -26 -7 -51 -11 -71 -11 -269 -79 -360
-125 -362 -181 -656 -498 -794 -856 -34 -89 -70 -214 -81 -284 -3 -19 -7 -46
-10 -60 -21 -117 -23 -306 -5 -441 39 -292 156 -568 343 -809 47 -60 451 -468
2869 -2890 843 -846 1192 -1191 1494 -1479 117 -112 250 -222 379 -312 78 -55
305 -189 375 -221 176 -81 250 -111 380 -153 107 -35 287 -81 350 -91 19 -2
55 -9 80 -14 189 -39 700 -48 855 -15 11 2 43 7 70 10 28 3 79 12 115 20 36 7
90 19 120 25 78 17 266 75 395 123 371 138 777 403 1053 687 35 36 98 100 140
144 80 81 128 115 201 141 62 22 100 25 330 30 112 2 216 6 230 9 14 3 51 8
81 11 57 5 101 11 135 18 11 3 40 8 65 12 25 3 59 10 75 15 17 5 44 11 60 14
66 12 290 78 350 105 11 4 71 30 133 56 222 93 478 246 672 401 81 65 316 293
391 379 225 260 450 650 564 978 31 89 80 256 90 308 2 11 6 28 9 37 3 9 8 33
11 52 3 19 12 71 20 115 50 284 47 691 -6 975 -86 452 -230 815 -467 1178 -70
107 -206 283 -282 366 -19 21 -1074 1078 -2343 2350 -4074 4079 -3933 3935
-4089 4161 -142 206 -249 425 -328 672 -22 69 -42 135 -44 147 -2 12 -11 50
-19 86 -35 152 -51 305 -51 505 -1 173 8 358 19 375 1 3 6 25 9 50 7 50 7 54
30 160 37 176 139 458 184 512 56 67 117 76 277 43 420 -87 805 -276 1135
-560 65 -55 378 -366 1814 -1800 1981 -1979 2127 -2119 2371 -2282 327 -218
670 -326 1040 -326 76 0 265 12 274 17 3 2 29 7 56 10 28 4 57 9 65 11 8 2 27
6 41 9 53 9 184 49 271 82 218 85 471 244 678 428 48 44 331 326 355 356 37
44 219 245 225 248 8 3 25 -13 165 -162 321 -341 541 -551 665 -636 19 -13 37
-27 40 -30 7 -7 82 -56 144 -93 72 -42 229 -120 306 -150 87 -35 285 -94 341
-102 24 -3 62 -10 84 -15 98 -22 332 -29 484 -16 244 21 502 96 737 216 94 48
233 132 269 162 6 5 34 26 63 47 127 93 8 -25 2807 2783 629 631 1174 1173
1212 1204 37 32 71 63 75 68 5 7 8 5 8 -4 1 -8 3 -1831 4 -4050 2 -2219 6
-4066 9 -4105 6 -88 25 -226 39 -285 5 -25 11 -52 13 -61 25 -121 136 -367
227 -502 61 -90 69 -101 147 -191 89 -103 279 -269 351 -306 14 -7 27 -16 30
-19 24 -31 263 -145 398 -190 125 -42 131 -44 257 -66 187 -32 410 -36 547 -9
15 3 40 7 56 9 72 9 241 59 355 104 639 255 1056 837 1114 1556 4 49 7 1701 7
3670 0 2755 -2 3595 -12 3645 -6 36 -14 85 -18 110 -3 24 -7 47 -9 50 -2 3 -6
21 -9 40 -19 121 -114 381 -197 538 -157 301 -346 524 -641 755 -64 51 -318
207 -336 207 -6 0 -86 36 -134 61 -34 17 -165 61 -268 89 -91 24 -144 36 -259
55 -65 11 -200 19 -316 19 -124 0 -291 -10 -304 -18 -3 -2 -28 -7 -56 -10 -85
-10 -291 -59 -450 -106 -38 -12 -77 -23 -85 -25 -8 -2 -24 -7 -36 -10 -18 -6
-41 23 -173 220 -197 292 -307 439 -410 547 -255 269 -602 470 -966 562 -55
13 -119 27 -142 31 -23 3 -57 8 -75 12 -18 3 -118 7 -223 9 -146 2 -216 -1
-305 -15 -312 -49 -573 -151 -835 -327 -119 -79 -166 -117 -290 -234 -95 -90
-3808 -3803 -3980 -3981 -123 -127 -233 -247 -345 -377 -53 -61 -65 -70 -79
-60 -9 6 -597 592 -1307 1302 -1106 1107 -2591 2582 -2875 2858 -47 46 -112
106 -144 133 -32 28 -63 55 -69 60 -61 57 -273 207 -396 282 -104 63 -321 172
-427 214 -240 96 -549 175 -760 195 -32 3 -69 8 -83 10 -28 6 -426 14 -431 10z
m431 -470 c509 -47 985 -246 1375 -576 142 -120 2576 -2557 3752 -3757 92 -94
254 -258 358 -365 105 -107 196 -206 204 -221 15 -27 14 -29 -70 -115 -247
-255 -494 -494 -564 -547 -44 -33 -82 -62 -85 -65 -12 -14 -171 -110 -235
-142 -145 -74 -358 -140 -498 -156 -116 -12 -258 -7 -387 14 -130 22 -334 110
-485 211 -48 32 -104 69 -124 82 -70 47 -237 176 -316 246 -152 133 -2319
2293 -2945 2934 -342 352 -582 592 -646 651 -436 395 -830 633 -1294 778 -93
30 -142 42 -244 62 -27 6 -51 11 -52 13 -5 4 152 165 254 260 142 133 291 244
487 364 91 55 267 136 415 190 96 35 321 96 395 107 40 6 71 11 130 21 17 3
71 8 120 11 50 4 91 7 93 9 5 4 290 -3 362 -9z m12090 -88 c14 -3 39 -8 55
-11 17 -4 42 -9 58 -12 63 -12 80 -17 164 -46 459 -160 815 -509 973 -954 36
-103 37 -160 1 -241 -25 -55 80 52 -1705 -1737 -675 -678 -1404 -1412 -1620
-1631 -670 -683 -759 -772 -841 -839 -327 -264 -710 -409 -1090 -410 -82 -1
-235 10 -273 18 -45 10 -68 15 -97 20 -97 19 -377 127 -416 161 -8 8 -19 14
-24 14 -9 0 -169 105 -204 135 -101 84 -186 163 -232 215 -100 115 -193 205
-344 335 -82 71 -152 132 -153 137 -5 11 358 368 719 708 84 80 189 179 232
220 44 41 854 849 1801 1795 1319 1319 1743 1737 1816 1791 272 201 473 287
790 337 32 5 357 1 390 -5z m2960 -1183 c209 -39 344 -81 505 -160 311 -151
544 -359 733 -654 93 -144 197 -398 228 -556 20 -100 35 -208 41 -300 11 -148
10 -7074 0 -7150 -7 -53 -14 -87 -33 -183 -12 -58 -69 -211 -109 -290 -182
-361 -501 -603 -915 -693 -84 -18 -137 -23 -260 -24 -167 0 -212 4 -336 34
-239 58 -451 178 -634 361 -216 216 -338 465 -375 770 -4 30 -7 1108 -7 2395
1 1287 1 3148 1 4135 0 987 0 1824 1 1860 2 116 34 196 101 250 93 74 351 167
544 196 22 4 60 10 85 14 51 8 377 5 430 -5z m-18120 -137 c-1 -16 -10 -59
-44 -208 -102 -444 -124 -629 -120 -975 1 -137 5 -263 7 -280 3 -16 8 -57 12
-90 3 -33 8 -67 11 -76 3 -9 7 -33 9 -52 8 -59 53 -242 87 -350 123 -399 358
-796 675 -1146 113 -124 903 -918 3643 -3664 1339 -1342 2440 -2444 2446
-2451 42 -45 187 -224 243 -299 204 -277 350 -580 425 -887 21 -83 30 -128 52
-265 18 -116 25 -463 12 -610 -18 -189 -77 -450 -143 -630 -49 -133 -170 -380
-238 -485 -416 -642 -1052 -1053 -1802 -1165 -22 -3 -106 -9 -187 -12 l-147
-6 10 38 c11 38 16 60 25 105 3 14 26 106 50 205 67 266 105 443 133 625 36
231 36 608 0 865 -5 39 -11 77 -14 85 -2 8 -6 32 -10 54 -9 64 -54 235 -90
344 -114 342 -291 652 -549 961 -88 106 -64 82 -1866 1891 -828 831 -1732
1739 -2009 2018 -891 898 -2139 2156 -2163 2182 -218 239 -378 482 -505 765
-89 198 -178 527 -198 730 -4 39 -9 81 -11 95 -10 71 -2 435 11 500 2 14 7 52
11 85 3 33 7 62 9 65 2 3 6 25 10 50 4 25 8 47 10 51 2 3 7 19 9 36 22 124
107 358 198 543 253 515 673 926 1208 1182 157 75 459 169 580 180 107 10 210
8 210 -4z m-2815 -7948 c88 -12 110 -18 235 -62 131 -46 259 -120 386 -222 43
-34 3230 -3219 4470 -4467 528 -531 581 -583 724 -699 30 -25 57 -47 60 -50
18 -19 203 -150 295 -208 184 -116 371 -209 550 -271 89 -32 215 -91 215 -102
0 -3 -18 -18 -41 -35 -39 -28 -104 -80 -282 -227 -358 -294 -851 -504 -1302
-552 -33 -4 -71 -9 -85 -11 -33 -6 -388 -6 -420 0 -14 2 -52 7 -85 11 -396 43
-822 208 -1156 448 -84 60 -125 92 -213 167 -74 62 -2076 2060 -3151 3145
-273 275 -648 653 -833 840 -362 364 -404 410 -477 523 -70 110 -141 274 -160
371 -2 12 -6 30 -9 39 -21 74 -26 263 -9 375 37 251 143 458 332 648 116 116
185 167 310 231 199 101 421 138 646 108z"/>
<path d="M22828 11004 c-2 -1 -30 -5 -63 -9 -197 -21 -431 -89 -620 -180 -522
-251 -908 -748 -1026 -1317 -11 -57 -23 -123 -25 -148 -2 -25 -6 -65 -10 -90
-7 -54 -7 -252 1 -335 16 -189 63 -383 135 -565 28 -73 126 -267 141 -280 3
-3 16 -23 29 -45 73 -121 225 -293 355 -403 274 -231 620 -386 954 -427 30 -4
63 -9 75 -11 29 -6 333 -6 376 0 19 3 58 8 85 12 28 3 59 8 70 10 11 2 34 7
50 10 200 35 494 157 675 280 461 311 753 776 831 1324 14 96 17 327 6 440
-61 657 -450 1237 -1026 1529 -183 94 -416 166 -616 192 -78 10 -390 21 -397
13z m357 -469 c405 -62 774 -289 1005 -620 53 -76 57 -83 109 -190 109 -223
142 -383 136 -645 -4 -179 -4 -179 -55 -380 -14 -55 -74 -199 -115 -274 -177
-327 -498 -596 -848 -710 -298 -97 -619 -93 -910 10 -443 158 -801 552 -921
1015 -37 145 -47 222 -48 384 -3 305 112 632 304 873 62 77 243 244 323 298
195 130 433 220 640 240 33 4 62 8 64 10 6 6 266 -4 316 -11z"/>
<path d="M1905 5420 c-57 -10 -88 -17 -115 -25 -10 -3 -29 -8 -42 -10 -62 -12
-192 -89 -258 -154 -111 -110 -153 -209 -146 -346 5 -85 8 -102 40 -170 30
-66 90 -132 164 -181 108 -72 215 -108 623 -210 265 -65 378 -151 363 -275
-13 -106 -89 -177 -224 -209 -61 -15 -234 -19 -320 -8 -155 20 -344 110 -466
222 l-39 36 -102 -107 c-56 -60 -102 -113 -103 -118 0 -17 155 -155 174 -155
3 0 36 -20 74 -45 84 -54 139 -76 285 -115 128 -33 174 -38 417 -41 167 -3
178 -2 236 22 253 104 372 256 380 484 10 296 -153 462 -573 580 -12 3 -30 7
-40 10 -75 15 -290 69 -343 87 -134 44 -211 119 -212 208 -2 145 120 217 382
225 202 6 358 -39 535 -152 42 -28 71 -41 73 -34 2 7 19 34 37 61 18 27 50 77
71 111 l38 63 -40 34 c-21 18 -55 43 -74 53 -19 11 -48 28 -65 37 -67 41 -225
92 -355 117 -54 11 -319 14 -375 5z"/>
<path d="M3240 4482 l0 -938 160 0 c106 -1 160 3 163 10 2 6 3 300 3 654 -1
353 1 642 4 642 3 0 137 -185 299 -410 162 -226 297 -410 300 -410 3 0 65 81
136 180 72 99 138 190 147 202 29 38 148 201 232 318 44 60 81 108 83 107 1
-2 3 -293 4 -648 l1 -646 161 1 162 1 1 938 0 937 -157 0 -157 0 -258 -367
c-143 -202 -276 -392 -298 -422 -21 -31 -43 -61 -50 -68 -8 -9 -78 83 -286
373 -151 212 -283 395 -293 407 -11 12 -25 34 -33 50 l-15 27 -154 0 -155 0 0
-938z"/>
<path d="M12889 2203 c-75 -161 -87 -188 -112 -243 -14 -30 -96 -208 -182
-395 -87 -187 -169 -365 -182 -395 -14 -30 -68 -147 -120 -260 -53 -113 -107
-230 -120 -260 -14 -30 -45 -97 -69 -148 -23 -50 -42 -93 -41 -94 1 0 76 -2
167 -3 l164 -2 88 191 c49 105 94 203 100 218 l12 26 475 -1 475 -2 22 -45
c12 -25 33 -70 47 -100 14 -30 50 -107 80 -171 l54 -116 172 0 c94 0 171 1
171 3 0 1 -112 245 -249 541 -136 296 -260 563 -273 593 -71 154 -271 586
-306 663 l-41 87 -146 0 -146 0 -40 -87z m311 -598 c62 -137 126 -279 143
-315 16 -36 38 -84 48 -107 l18 -43 -340 0 c-187 0 -338 3 -336 8 5 10 57 120
97 207 45 96 98 209 160 340 29 61 59 125 67 144 8 18 18 30 22 25 5 -5 59
-121 121 -259z"/>
<path d="M1388 2273 c-2 -5 -4 -426 -3 -938 l0 -930 716 -1 715 -1 0 151 -1
151 -552 0 -553 0 0 267 0 268 403 0 402 0 0 150 c0 127 -2 150 -15 151 -8 0
-189 1 -402 1 l-388 1 0 218 0 219 548 0 547 0 0 148 0 147 -707 3 c-389 1
-708 -1 -710 -5z"/>
<path d="M3209 2263 c-4 -83 1 -1845 5 -1851 3 -5 75 -9 161 -9 l155 0 1 596
c0 328 0 622 -1 654 -1 31 1 57 4 57 4 0 100 -121 206 -260 14 -18 81 -105
150 -194 69 -89 170 -219 224 -291 55 -71 112 -146 128 -165 16 -19 32 -40 36
-45 9 -13 134 -176 149 -195 6 -8 37 -47 67 -86 l55 -71 143 1 143 1 3 938 2
937 -157 0 -158 0 -2 -253 c-4 -688 -8 -1057 -13 -1056 -3 0 -97 122 -210 271
-175 231 -548 720 -736 966 l-55 72 -150 0 c-135 0 -149 -2 -150 -17z"/>
<path d="M5195 2133 l1 -148 297 -3 297 -2 0 -788 0 -789 155 0 c98 0 158 3
162 10 3 6 7 360 7 786 l1 776 295 5 295 5 0 148 0 147 -755 0 -755 0 0 -147z"/>
<path d="M7064 1343 l1 -938 713 -1 c391 0 712 2 713 5 1 9 1 263 0 281 -1 13
-67 15 -538 15 -296 -1 -545 1 -553 3 -13 3 -15 38 -13 250 1 136 2 255 2 265
1 16 27 17 401 17 l401 0 -3 152 -3 151 -397 0 -398 0 -1 46 c-1 52 -1 321 0
364 l1 27 540 0 540 0 0 150 0 150 -703 0 -704 0 1 -937z"/>
<path d="M8886 1348 c1 -513 2 -936 3 -939 0 -4 72 -6 159 -5 l157 1 3 373 2
372 237 -2 c227 -3 238 -4 248 -23 5 -12 102 -178 214 -371 l204 -351 189 0
c103 0 188 2 188 3 0 2 -82 138 -181 301 -100 164 -201 330 -225 370 -54 88
-60 103 -43 103 31 0 142 62 189 106 127 119 189 349 150 554 -15 78 -101 249
-150 299 -49 49 -133 93 -229 120 -66 18 -107 20 -594 21 l-522 1 1 -933z
m1058 592 c141 -73 151 -354 16 -444 -21 -14 -58 -30 -82 -35 -24 -5 -180 -8
-348 -7 l-305 1 -3 257 -2 256 338 -1 338 -2 48 -25z"/>
<path d="M10594 2136 c1 -79 4 -147 7 -150 3 -3 136 -6 295 -6 l291 -1 0 -787
0 -787 169 -1 169 -1 0 786 0 786 290 5 290 5 0 130 c0 72 -1 138 -3 148 -4
16 -48 17 -756 17 l-752 0 0 -144z"/>
<path d="M14384 1343 l1 -938 160 0 160 0 0 935 0 935 -161 3 -161 2 1 -937z"/>
<path d="M15220 1342 l0 -938 163 0 162 1 0 653 c0 358 3 651 7 650 3 -2 46
-55 94 -118 48 -63 90 -117 94 -120 3 -3 32 -41 66 -85 33 -44 138 -181 234
-305 224 -290 289 -375 416 -541 l104 -135 145 -1 c141 0 145 0 146 21 1 25 0
1826 0 1844 -1 9 -40 12 -161 12 l-160 0 -2 -657 -3 -657 -76 99 c-85 113
-619 813 -747 980 -46 61 -105 138 -131 172 l-46 63 -152 0 -153 0 0 -938z"/>
<path d="M17345 1343 l0 -938 160 -1 160 -1 5 655 5 655 190 -269 c365 -519
390 -553 397 -551 4 1 86 110 182 242 97 132 181 248 189 257 7 9 60 82 117
161 58 80 107 143 110 140 3 -2 5 -293 5 -646 l0 -642 163 -1 162 -1 0 939 0
938 -152 0 -153 -1 -130 -182 c-71 -100 -212 -295 -312 -434 l-182 -253 -24
32 c-26 37 -424 600 -525 746 l-65 92 -151 0 -151 0 0 -937z"/>
<path d="M19680 1342 l0 -939 715 0 715 0 0 151 0 151 -552 0 -553 0 0 268 0
267 402 0 403 0 0 150 c0 113 -3 150 -12 151 -7 0 -188 1 -403 2 l-390 2 0
215 0 215 548 3 547 2 0 150 0 150 -710 0 -710 0 0 -938z"/>
<path d="M21505 2268 c-3 -7 -3 -429 -2 -938 l2 -925 160 0 160 0 1 647 c0
356 2 650 5 652 3 3 95 -112 204 -255 110 -144 205 -266 210 -272 6 -7 141
-181 299 -387 159 -206 293 -378 298 -381 5 -3 75 -6 156 -6 l147 0 0 936 0
936 -162 3 -163 2 -1 -157 c-1 -369 -10 -1147 -13 -1150 -2 -2 -30 32 -62 74
-32 43 -131 172 -219 288 -89 115 -212 278 -275 360 -63 83 -145 191 -183 240
-38 50 -112 147 -165 217 l-97 128 -148 0 c-109 0 -149 -3 -152 -12z"/>
<path d="M23490 2130 l0 -150 297 -2 298 -3 0 -783 c-1 -430 2 -783 5 -784 3
0 78 -2 168 -3 l162 -3 0 789 0 789 290 0 290 0 0 150 0 150 -755 0 -755 0 0
-150z"/>
</g>
</svg>
